<svg data-v-0dd9719b="" version="1.0" xmlns="http://www.w3.org/2000/svg" xmlns:xlink="http://www.w3.org/1999/xlink" width="100%" height="100%" viewBox="0 0 340.000000 250.000000" preserveAspectRatio="xMidYMid meet" color-interpolation-filters="sRGB" style="margin: auto;"> <rect data-v-0dd9719b="" x="0" y="0" width="100%" height="100%" fill="#fff" fill-opacity="1" class="background"></rect> <rect data-v-0dd9719b="" x="0" y="0" width="100%" height="100%" fill="url(#watermark)" fill-opacity="1" class="watermarklayer"></rect> <g data-v-0dd9719b="" fill="#017cc0" class="icon-text-wrapper icon-svg-group iconsvg" transform="translate(49.225006103515625,92.54476165771484)"><g class="iconsvg-imagesvg" transform="translate(0,0)"><g><rect fill="#017cc0" fill-opacity="0" stroke-width="2" x="0" y="0" width="60.00000000000001" height="64.91047763293126" class="image-rect"></rect> <svg x="0" y="0" width="60.00000000000001" height="64.91047763293126" filtersec="colorsb5567665698" class="image-svg-svg primary" style="overflow: visible;"><svg xmlns="http://www.w3.org/2000/svg" viewBox="0 0 29.44061279296875 31.850000381469727"><g><g fill="#017cc0"><circle cx="15.07" cy="16.54" r="6.66"></circle><path d="M25.06 6.21l.17.17a14.37 14.37 0 0 1 .24 20.08 5.17 5.17 0 0 0-1.14-1.71 5.05 5.05 0 0 0-.39-.35 11.85 11.85 0 0 0-.27-16 5.87 5.87 0 0 0 1.37-2.15zm-8.89 24.65h-1.11a14.39 14.39 0 0 1-12.31-7 4 4 0 0 0 2.34-1 11.86 11.86 0 0 0 10 5.45h.47a5.13 5.13 0 0 0 .64 2.48zM.7 16.25A14.37 14.37 0 0 1 14 2.2a5.86 5.86 0 0 0-.35 2v.56A11.85 11.85 0 0 0 3.23 16a4.06 4.06 0 0 0-2.53.29z" fill-rule="evenodd"></path><circle cx="2.4" cy="19.92" r="2.4"></circle><circle cx="19.54" cy="4.21" r="4.21"></circle><circle cx="20.69" cy="28.38" r="3.47"></circle></g></g></svg></svg> <!----></g></g> <g transform="translate(67,5.101173400878906)"><g data-gra="path-name" fill-rule="" class="tp-name iconsvg-namesvg" transform="translate(0,0)"><g transform="scale(1)"><g><path d="M12.66-21.4Q10.85-21.4 10.85-23.25L10.85-23.25Q10.85-23.6 11.07-23.95 11.29-24.3 11.78-24.87L11.78-24.87Q14.99-28.34 17.09-33.93L17.09-33.93Q17.8-35.77 19.29-35.77L19.29-35.77Q20.21-35.77 20.63-35.44 21.05-35.11 21.05-34.41L21.05-34.41Q21.05-33.75 20.21-31.9L20.21-31.9 39.95-31.9Q41.66-31.9 41.66-30.19L41.66-30.19Q41.66-28.56 39.95-28.56L39.95-28.56 18.59-28.56Q17.89-27.2 17.23-26.19 16.57-25.18 15.47-23.77L15.47-23.77Q13.58-21.4 12.66-21.4L12.66-21.4ZM10.94-28.92Q10.33-28.92 9.45-29.53L9.45-29.53Q8.75-30.01 6.99-30.89L6.99-30.89Q5.1-31.82 5.1-32.92L5.1-32.92Q5.1-33.84 5.54-34.28 5.98-34.72 6.94-34.72L6.94-34.72Q7.91-34.72 10.42-33.4L10.42-33.4Q12.88-32.08 12.88-30.85L12.88-30.85Q12.88-28.92 10.94-28.92L10.94-28.92ZM29.88 4.17Q28.39 4.17 27.8 3.82 27.2 3.47 27.2 2.46L27.2 2.46Q27.2 1.27 27.95 0.88L27.95 0.88Q28.26 0.7 30.54 0.66L30.54 0.66Q32.74 0.57 33.44 0.22L33.44 0.22Q33.88 0 34.1-1.71L34.1-1.71 18.06-1.71Q16.26-1.71 15.27-2.46 14.28-3.21 14.28-4.61L14.28-4.61Q14.28-5.58 14.72-9.01L14.72-9.01 15.07-12 13.1-12Q11.25-12 11.25-13.58L11.25-13.58Q11.25-15.16 13.1-15.16L13.1-15.16 15.34-15.16 15.64-18.59Q15.73-19.12 15.82-20.39L15.82-20.39Q16.04-22.9 16.94-24.08 17.84-25.27 19.82-25.27L19.82-25.27 34.8-25.27Q38.63-25.27 38.63-21.84L38.63-21.84 38.36-15.16 40.69-15.16Q42.54-15.16 42.54-13.58L42.54-13.58Q42.54-12 40.69-12L40.69-12 38.28-12Q38.06-7.12 37.92-4.92L37.92-4.92 40.08-4.92Q41.66-4.92 41.66-3.3L41.66-3.3Q41.66-1.71 40.08-1.71L40.08-1.71 37.71-1.71Q37.27 1.67 35.82 2.9L35.82 2.9Q34.32 4.17 29.88 4.17L29.88 4.17ZM8.96-17.97Q8.61-17.97 7.47-18.46L7.47-18.46 4.79-19.73Q2.99-20.57 2.99-21.71L2.99-21.71Q2.99-22.68 3.43-23.12 3.87-23.55 4.83-23.55L4.83-23.55Q5.84-23.55 9.27-21.88L9.27-21.88Q10.85-21.09 10.85-19.91L10.85-19.91Q10.85-17.97 8.96-17.97L8.96-17.97ZM34.89-15.16Q34.94-16.26 35.02-17.97 35.11-19.69 35.11-20.79L35.11-20.79Q35.11-22.02 33.71-22.02L33.71-22.02 20.65-22.02Q20-22.02 19.64-21.67 19.29-21.31 19.25-20.57L19.25-20.57 18.81-15.16 34.89-15.16ZM28.78-15.82Q28.43-15.82 27.69-16.26 26.94-16.7 26.28-17.18L26.28-17.18Q25.58-17.71 24.35-18.5L24.35-18.5Q23.03-19.38 23.03-20.08L23.03-20.08Q23.03-21.53 24.7-21.53L24.7-21.53Q25.4-21.53 27.95-19.91L27.95-19.91Q30.59-18.19 30.59-17.31L30.59-17.31Q30.59-15.82 28.78-15.82L28.78-15.82ZM5.1 3.25Q4.09 3.25 3.6 2.77 3.12 2.29 3.12 1.23L3.12 1.23Q3.12 0.79 3.52 0.04L3.52 0.04Q5.41-3.74 7.56-10.06L7.56-10.06Q8.31-12.35 9.62-12.35L9.62-12.35Q11.43-12.35 11.43-10.59L11.43-10.59Q11.43-9.4 9.27-3.78L9.27-3.78Q7.25 1.54 6.59 2.55L6.59 2.55Q6.11 3.25 5.1 3.25L5.1 3.25ZM34.41-4.92L34.8-12 18.54-12Q18.46-11.43 17.93-6.06L17.93-6.06Q17.84-5.54 18.24-5.23 18.63-4.92 19.34-4.92L19.34-4.92 34.41-4.92ZM29.09-5.54Q28.65-5.54 27.86-5.93 27.07-6.33 26.37-6.86L26.37-6.86 25.53-7.38Q25.14-7.6 24.35-8.13L24.35-8.13Q23.07-9.01 23.07-9.71L23.07-9.71Q23.07-11.12 24.7-11.12L24.7-11.12Q25.31-11.12 27.91-9.49L27.91-9.49Q30.54-7.87 30.54-7.03L30.54-7.03Q30.54-6.33 30.1-5.93 29.66-5.54 29.09-5.54L29.09-5.54ZM85.21-28.21L69.13-28.21 69.13-24.17 81.12-24.17Q83.28-24.17 84.46-23.12L84.46-23.12Q85.52-22.19 85.52-19.95L85.52-19.95 85.52-1.1Q85.52 1.71 84.33 2.72L84.33 2.72Q82.84 4 80.46 3.96L80.46 3.96 77.74 3.96Q75.45 3.96 75.45 2.02L75.45 2.02Q75.45 0.13 77.74 0.13L77.74 0.13 80.2 0.13Q81.04 0.13 81.43-0.26 81.83-0.66 81.87-1.54L81.87-1.54 81.87-18.98Q81.87-20.74 80.02-20.83L80.02-20.83 75.59-20.83 74.62-15.47 77.34-15.47Q79.19-15.47 79.19-13.89L79.19-13.89Q79.19-12.35 77.34-12.35L77.34-12.35 69.08-12.35 69.08-8.48 78.09-8.48Q79.94-8.48 79.94-6.86L79.94-6.86Q79.94-5.32 78.09-5.32L78.09-5.32 69.08-5.32 69.08 1.14Q69.08 3.25 67.32 3.25L67.32 3.25Q65.57 3.25 65.57 1.14L65.57 1.14 65.57-5.32 56.82-5.32Q54.98-5.32 54.98-6.86L54.98-6.86Q54.98-8.48 56.82-8.48L56.82-8.48 65.57-8.48 65.57-12.35 57.48-12.35Q55.63-12.35 55.63-13.93L55.63-13.93Q55.63-15.47 57.48-15.47L57.48-15.47 60.16-15.47 59.24-20.83 54.98-20.83Q53.26-20.83 53.17-18.98L53.17-18.98 53.17 1.85Q53.17 4.04 51.33 4.04L51.33 4.04Q49.48 4.04 49.48 1.85L49.48 1.85 49.48-19.78Q49.48-21.93 50.54-23.12L50.54-23.12Q51.55-24.26 53.88-24.17L53.88-24.17 65.48-24.17 65.48-28.21 49.79-28.21Q47.77-28.21 47.77-29.93L47.77-29.93Q47.77-31.6 49.79-31.6L49.79-31.6 65.48-31.6 65.48-33.84Q65.48-35.68 67.28-35.68L67.28-35.68Q69.13-35.68 69.13-33.84L69.13-33.84 69.13-31.6 85.21-31.6Q87.28-31.6 87.28-29.93L87.28-29.93Q87.28-28.21 85.21-28.21L85.21-28.21ZM71.24-15.51L72.25-20.83 62.53-20.83 63.54-15.51 71.24-15.51ZM98.92 4.31Q97.21 4.31 97.21 2.37L97.21 2.37 97.21-17.71Q94.88-13.01 93.82-13.01L93.82-13.01Q92.42-13.01 92.42-14.77L92.42-14.77Q92.42-15.47 92.94-16.39L92.94-16.39Q95.45-20.74 97.34-25.8L97.34-25.8Q98.48-28.92 99.05-30.63 99.62-32.34 99.84-33.49L99.84-33.49Q100.28-35.82 101.87-35.82L101.87-35.82Q103.67-35.82 103.67-34.28L103.67-34.28Q103.67-33.75 103.36-32.96L103.36-32.96 100.63-25.18 100.63 2.37Q100.63 4.31 98.92 4.31L98.92 4.31ZM123.57 4Q121.55 4 121.55 2.15L121.55 2.15Q121.55 0.31 123.49 0.31L123.49 0.31 125.46 0.31Q126.56 0.31 127.07-0.18 127.57-0.66 127.53-1.71L127.53-1.71 127.53-33.22Q127.53-35.29 129.24-35.29L129.24-35.29Q131-35.29 131-33.22L131-33.22 131-0.57Q131 1.85 129.97 2.94 128.94 4.04 126.65 4L126.65 4 123.57 4ZM111.27 4.31Q109.64 4.31 109.64 2.46L109.64 2.46 109.64-15.34Q108.46-11.16 106.61-7.38L106.61-7.38Q104.63-3.34 103.49-3.34L103.49-3.34Q101.82-3.34 101.82-5.19L101.82-5.19Q101.82-5.84 102.57-6.86L102.57-6.86Q106.96-12.79 109.2-20.57L109.2-20.57 103.89-20.57Q102.26-20.57 102.26-22.24L102.26-22.24Q102.26-23.86 103.89-23.86L103.89-23.86 109.64-23.86 109.64-30.19Q106-29.53 105.34-29.53L105.34-29.53Q103.62-29.53 103.62-31.16L103.62-31.16Q103.62-31.99 104.24-32.48L104.24-32.48Q104.46-32.61 105.56-32.74L105.56-32.74Q106.39-32.83 107.45-33L107.45-33Q112.94-33.97 116.19-35.07L116.19-35.07 116.85-35.2Q118.52-35.2 118.52-33.53L118.52-33.53Q118.52-32.12 115.66-31.55L115.66-31.55Q115.09-31.46 114.68-31.35 114.26-31.25 113.95-31.16L113.95-31.16 112.85-30.89 112.85-23.86 116.94-23.86Q118.52-23.86 118.52-22.19L118.52-22.19Q118.52-20.57 116.94-20.57L116.94-20.57 112.85-20.57 112.85-16.04Q113.29-16.61 113.86-16.61L113.86-16.61Q114.83-16.61 116.02-14.55L116.02-14.55 117.07-13.05Q118.83-10.59 118.83-9.58L118.83-9.58Q118.83-8.13 117.29-8.13L117.29-8.13Q116.24-8.13 115.44-10.11L115.44-10.11Q115.31-10.46 114.21-12.3L114.21-12.3 112.85-14.68 112.85 2.46Q112.85 4.31 111.27 4.31L111.27 4.31ZM121.82-4.75Q120.19-4.75 120.19-6.77L120.19-6.77 120.19-30.41Q120.19-32.34 121.86-32.34L121.86-32.34Q122.65-32.34 123.09-31.86 123.53-31.38 123.53-30.41L123.53-30.41 123.53-6.77Q123.53-4.75 121.82-4.75L121.82-4.75ZM139.66-14.55Q137.81-14.55 137.81-16.13L137.81-16.13Q137.81-17.71 139.66-17.71L139.66-17.71 155.52-17.71 155.52-21.14 143.39-21.14Q141.64-21.14 141.64-22.68L141.64-22.68Q141.64-24.17 143.39-24.17L143.39-24.17 155.52-24.17 155.52-27.42 140.67-27.42Q138.91-27.42 138.91-29L138.91-29Q138.91-30.59 140.67-30.59L140.67-30.59 149.37-30.59 148.1-32.65Q147.39-33.79 147.39-34.15L147.39-34.15Q147.39-35.64 149.19-35.64L149.19-35.64Q150.69-35.64 153.24-30.59L153.24-30.59 161.06-30.59 162.6-33.71Q163.13-34.76 163.65-35.29 164.18-35.82 164.79-35.82L164.79-35.82Q166.64-35.82 166.64-34.23L166.64-34.23Q166.64-33.75 164.71-30.67L164.71-30.67 164.62-30.59 174.29-30.59Q176.09-30.59 176.09-29L176.09-29Q176.09-27.42 174.29-27.42L174.29-27.42 159.04-27.42 159.04-24.17 171.61-24.17Q173.36-24.17 173.36-22.68L173.36-22.68Q173.36-21.14 171.61-21.14L171.61-21.14 159.04-21.14 159.04-17.71 175.3-17.71Q177.1-17.71 177.1-16.13L177.1-16.13Q177.1-14.55 175.3-14.55L175.3-14.55 139.66-14.55ZM175.39 0.31Q176.44 0.4 176.99 0.88 177.54 1.36 177.54 2.07L177.54 2.07Q177.54 4 175.34 4L175.34 4Q170.77 4 165.32 1.14L165.32 1.14Q159.87-1.71 157.24-6.02L157.24-6.02 157.15-5.98Q155.08-2.24 151.22 0.31L151.22 0.31Q147.39 2.81 140.45 4L140.45 4 139.44 4.13Q138.47 4.26 137.97 3.76 137.46 3.25 137.46 2.24L137.46 2.24Q137.46 1.63 137.75 1.25 138.03 0.88 138.69 0.7L138.69 0.7 140.67 0.35Q150.47-0.97 153.9-6.9L153.9-6.9 140.19-6.9Q138.21-6.9 138.21-8.48L138.21-8.48Q138.21-10.11 140.19-10.11L140.19-10.11 155.04-10.11 155.3-12.08Q155.57-14.19 157.02-14.19L157.02-14.19Q158.77-14.19 158.77-12.52L158.77-12.52 158.51-10.11 174.77-10.11Q176.75-10.11 176.75-8.48L176.75-8.48Q176.75-6.9 174.77-6.9L174.77-6.9 160.18-6.9Q164.97-0.62 175.39 0.31L175.39 0.31Z" transform="translate(-2.990000009536743, 35.81999969482422)"></path></g> <!----> <!----> <!----> <!----> <!----> <!----> <!----></g></g> <g data-gra="path-slogan" fill-rule="" class="tp-slogan iconsvg-slogansvg" fill="#017cc0" transform="translate(5,46.130001068115234)"><rect x="0" height="1" y="3.7899999618530273" width="40.41499328613281"></rect> <rect height="1" y="3.7899999618530273" width="40.41499328613281" x="124.13499450683594"></rect> <g transform="translate(43.41499328613281,0)"><g transform="scale(1)"><path d="M2.06-5.06L6.56-5.06L6.56-8.58L7.73-8.58L7.73 0L6.56 0L6.56-3.98L2.06-3.98L2.06 0L0.89 0L0.89-8.58L2.06-8.58L2.06-5.06ZM15.19 0L14.34-2.48L10.88-2.48L9.98 0L8.81 0L12.05-8.58L13.36-8.58L16.45 0L15.19 0ZM12.61-7.31L11.25-3.52L13.92-3.52L12.66-7.31L12.61-7.31ZM17.67-8.58L18.84-8.58L18.84 0L17.67 0L17.67-8.58ZM22.22-8.58L26.53-1.64L26.53-8.58L27.66-8.58L27.66 0L26.34 0L21.98-6.94L21.94-6.94L21.94 0L20.81 0L20.81-8.58L22.22-8.58ZM35.11 0L34.27-2.48L30.80-2.48L29.91 0L28.73 0L31.97-8.58L33.28-8.58L36.38 0L35.11 0ZM32.53-7.31L31.17-3.52L33.84-3.52L32.58-7.31L32.53-7.31ZM38.81-8.58L43.13-1.64L43.13-8.58L44.25-8.58L44.25 0L42.94 0L38.58-6.94L38.53-6.94L38.53 0L37.41 0L37.41-8.58L38.81-8.58ZM49.36-8.58L50.53-8.58L50.53-1.03L54.89-1.03L54.89 0L49.36 0L49.36-8.58ZM56.20-8.58L57.38-8.58L57.38 0L56.20 0L56.20-8.58ZM67.59-8.58L67.59 0L66.47 0L66.47-5.06Q66.47-5.77 66.47-7.22L66.47-7.22L64.03 0L62.86 0L60.47-7.22L60.42-7.22Q60.42-6.70 60.47-5.67L60.47-5.67Q60.47-5.16 60.47-5.06L60.47-5.06L60.47 0L59.30 0L59.30-8.58L60.98-8.58L63.47-1.31L65.91-8.58L67.59-8.58ZM70.59-1.03L75.75-1.03L75.75 0L69.42 0L69.42-8.58L75.66-8.58L75.66-7.59L70.59-7.59L70.59-4.92L75.28-4.92L75.28-3.89L70.59-3.89L70.59-1.03ZM77.44-8.58L78.61-8.58L78.61 0L77.44 0L77.44-8.58Z" transform="translate(-0.890625, 8.578125)"></path></g></g></g></g></g><defs v-gra="od"></defs></svg>